<svg xmlns="http://www.w3.org/2000/svg" width="732" height="128" viewBox="0 0 732 128"><g fill-rule="evenodd"><g transform="translate(176 17)"><path fill-rule="nonzero" d="M39.5745324 93.184C65.6865324 93.184 76.6945324 82.56 76.6945324 66.56 76.6945324 50.688 67.2225324 43.136 51.2225324 41.088L31.3825324 38.528C20.2465324 37.12 14.9985324 34.432 14.9985324 25.728 14.9985324 17.536 20.5025324 12.288 36.2465324 12.288 55.1905324 12.288 60.8225324 20.736 61.5905324 30.08L75.6705324 30.08C75.0305324 14.336 64.9185324 0 36.3745324 0 13.2065324 0 1.43053237 9.984 1.43053237 26.112 1.43053237 40.704 10.5185324 48.128 25.3665324 50.048L48.2785324 52.992C58.1345324 54.272 63.1265324 59.136 63.1265324 66.432 63.1265324 76.288 55.9585324 80.896 40.2145324 80.896 18.0705324 80.896 14.6145324 71.936 14.1025324 62.72L.02253237 62.72C-.48946763 78.08 7.57453237 93.184 39.5745324 93.184ZM89.2865324 91.648 102.598532 91.648 102.598532 55.424C102.598532 43.392 109.254532 37.248 119.622532 37.248 130.246532 37.248 135.878532 43.136 135.878532 56.832L135.878532 91.648 149.190532 91.648 149.190532 52.48C149.190532 33.024 136.774532 25.344 123.462532 25.344 114.630532 25.344 107.078532 28.8 102.598532 35.072L102.598532 1.536 89.2865324 1.536 89.2865324 91.648ZM163.190532 15.616 177.782532 15.616 177.782532 1.536 163.190532 1.536 163.190532 15.616ZM163.830532 91.648 177.142532 91.648 177.142532 26.88 163.830532 26.88 163.830532 91.648Z"/><polygon fill-rule="nonzero" points="191.783 91.648 205.095 91.648 205.095 82.048 220.967 64.384 241.063 91.648 256.807 91.648 229.543 54.784 254.503 26.88 239.911 26.88 205.095 64.896 205.095 1.536 191.783 1.536"/><path fill-rule="nonzero" d="M264.022532 15.616 278.614532 15.616 278.614532 1.536 264.022532 1.536 264.022532 15.616ZM264.662532 91.648 277.974532 91.648 277.974532 26.88 264.662532 26.88 264.662532 91.648ZM294.278532 91.648 308.102532 91.648 308.102532 57.984 337.542532 57.984C358.278532 57.984 369.158532 47.616 369.158532 29.056 369.158532 10.752 358.278532 1.536 337.542532 1.536L294.278532 1.536 294.278532 91.648ZM308.102532 45.696 308.102532 13.824 337.926532 13.824C349.702532 13.824 354.822532 20.096 354.822532 29.568 354.822532 40.064 348.934532 45.696 337.926532 45.696L308.102532 45.696Z"/><polygon fill-rule="nonzero" points="382.135 91.648 395.959 91.648 395.959 50.816 448.183 50.816 448.183 91.648 462.007 91.648 462.007 1.536 448.183 1.536 448.183 38.016 395.959 38.016 395.959 1.536 382.135 1.536"/><path fill-rule="nonzero" d="M479.974532,91.648 L493.798532,91.648 L493.798532,57.984 L523.238532,57.984 C543.974532,57.984 554.854532,47.616 554.854532,29.056 C554.854532,10.752 543.974532,1.536 523.238532,1.536 L479.974532,1.536 L479.974532,91.648 Z M493.798532,45.696 L493.798532,13.824 L523.622532,13.824 C535.398532,13.824 540.518532,20.096 540.518532,29.568 C540.518532,40.064 534.630532,45.696 523.622532,45.696 L493.798532,45.696 Z"/></g><path d="M128,0 L128,128 L0,128 L0,0 L128,0 Z M16,72 L40,104 L112,104 L88,72 L16,72 Z M16,24 L40,56 L112,56 L88,24 L16,24 Z"/></g></svg>